<svg width="596" height="596" viewBox="0 0 596 596" fill="none" xmlns="http://www.w3.org/2000/svg">
<circle cx="298" cy="298" r="298" fill="black"/>
<path d="M159.717 289.513H203.784V321.373H159.717V371.178H126.147V321.373H81.958V289.513H126.147V241.783H159.717V289.513ZM345.386 389H223.56V364.83L281.055 303.551C288.949 294.924 294.767 287.397 298.511 280.968C302.336 274.539 304.248 268.435 304.248 262.657C304.248 254.763 302.254 248.578 298.267 244.103C294.279 239.545 288.582 237.267 281.177 237.267C273.201 237.267 266.895 240.034 262.256 245.567C257.699 251.02 255.42 258.222 255.42 267.174H220.02C220.02 256.35 222.583 246.463 227.71 237.511C232.918 228.559 240.243 221.56 249.683 216.515C259.123 211.388 269.824 208.824 281.787 208.824C300.098 208.824 314.299 213.219 324.39 222.008C334.562 230.797 339.648 243.207 339.648 259.239C339.648 268.028 337.37 276.98 332.812 286.095C328.255 295.209 320.443 305.829 309.375 317.955L268.97 360.558H345.386V389ZM403.003 284.508H421.802C430.754 284.508 437.386 282.27 441.699 277.794C446.012 273.318 448.169 267.377 448.169 259.972C448.169 252.81 446.012 247.236 441.699 243.248C437.467 239.26 431.608 237.267 424.121 237.267C417.367 237.267 411.711 239.138 407.153 242.882C402.596 246.544 400.317 251.345 400.317 257.286H365.039C365.039 248.009 367.521 239.708 372.485 232.384C377.531 224.978 384.53 219.2 393.481 215.05C402.515 210.899 412.443 208.824 423.267 208.824C442.065 208.824 456.795 213.341 467.456 222.374C478.117 231.326 483.447 243.696 483.447 259.483C483.447 267.621 480.965 275.108 476.001 281.944C471.037 288.78 464.526 294.029 456.47 297.691C466.479 301.272 473.926 306.643 478.809 313.805C483.773 320.966 486.255 329.43 486.255 339.195C486.255 354.983 480.477 367.638 468.921 377.159C457.446 386.681 442.228 391.441 423.267 391.441C405.526 391.441 390.999 386.762 379.688 377.403C368.457 368.045 362.842 355.675 362.842 340.294H398.12C398.12 346.967 400.602 352.42 405.566 356.651C410.612 360.883 416.797 362.999 424.121 362.999C432.503 362.999 439.054 360.802 443.774 356.407C448.576 351.931 450.977 346.031 450.977 338.707C450.977 320.966 441.211 312.096 421.68 312.096H403.003V284.508Z" fill="white"/>
</svg>
