<svg width="965" height="965" viewBox="0 0 965 965" fill="none" xmlns="http://www.w3.org/2000/svg">
<circle cx="482.5" cy="482.5" r="482.5" fill="#D52A2A"/>
<path d="M186.665 507.937H157.49V573H120.869V395.266H186.909C207.905 395.266 224.1 399.945 235.493 409.304C246.886 418.662 252.583 431.887 252.583 448.977C252.583 461.102 249.938 471.234 244.648 479.372C239.44 487.429 231.506 493.858 220.845 498.659L259.297 571.291V573H219.99L186.665 507.937ZM157.49 478.273H187.031C196.227 478.273 203.348 475.954 208.394 471.315C213.439 466.595 215.962 460.126 215.962 451.906C215.962 443.524 213.561 436.932 208.76 432.131C204.04 427.329 196.756 424.929 186.909 424.929H157.49V478.273ZM387.471 495.974H317.158V543.581H399.678V573H280.537V395.266H399.434V424.929H317.158V467.287H387.471V495.974ZM513.325 526.369C513.325 519.452 510.884 514.162 506.001 510.5C501.118 506.757 492.329 502.85 479.634 498.781C466.938 494.631 456.888 490.562 449.482 486.574C429.3 475.669 419.209 460.98 419.209 442.507C419.209 432.904 421.895 424.359 427.266 416.872C432.718 409.304 440.49 403.404 450.581 399.172C460.754 394.94 472.147 392.824 484.761 392.824C497.456 392.824 508.768 395.144 518.696 399.782C528.625 404.34 536.315 410.809 541.768 419.191C547.301 427.574 550.068 437.095 550.068 447.756H513.447C513.447 439.618 510.884 433.311 505.757 428.835C500.63 424.278 493.428 421.999 484.15 421.999C475.199 421.999 468.241 423.911 463.276 427.736C458.312 431.48 455.83 436.444 455.83 442.629C455.83 448.407 458.719 453.249 464.497 457.155C470.356 461.062 478.942 464.724 490.254 468.142C511.087 474.408 526.265 482.18 535.786 491.457C545.308 500.734 550.068 512.29 550.068 526.125C550.068 541.506 544.25 553.591 532.612 562.38C520.975 571.088 505.309 575.441 485.615 575.441C471.943 575.441 459.492 572.959 448.262 567.995C437.031 562.95 428.446 556.073 422.505 547.365C416.646 538.658 413.716 528.566 413.716 517.092H450.459C450.459 536.704 462.178 546.511 485.615 546.511C494.323 546.511 501.118 544.761 506.001 541.262C510.884 537.681 513.325 532.717 513.325 526.369ZM681.904 495.974H611.592V543.581H694.111V573H574.971V395.266H693.867V424.929H611.592V467.287H681.904V495.974ZM851.826 424.929H797.383V573H760.762V424.929H707.051V395.266H851.826V424.929Z" fill="white"/>
</svg>
